#N canvas 277 162 656 413 12;
#X obj 148 230 tabwrite~ \$0-wavetable1;
#N canvas 0 22 450 300 (subpatch) 0;
#X array \$0-wavetable1 128 float 1;
#A 0 0 0 0 0 0 0 0 0 0 0 0 0 0 0 0 0 0 0 0 0 0 0 0 0 0 0 0 0 0 0 0
0 0 0 0 0 0 0 0 0 0 0 0 0 0 0 0 0 0 0 0 0 0 0 0 0 0 0 0 0 0 0 0 0 0
0 0 0 0 0 0 0 0 0 0 0 0 0 0 0 0 0 0 0 0 0 0 0 0 0 0 0 0 0 0 0 0 0 0
0 0 0 0 0 0 0 0 0 0 0 0 0 0 0 0 0 0 0 0 0 0 0 0 0 0 0 0 0;
#X coords 0 1 127 -1 200 140 1;
#X restore 403 53 graph;
#X obj 72 52 noise~;
#X obj 72 166 *~;
#X obj 74 327 dac~;
#X obj 148 200 metro 30;
#N canvas 45 83 488 322 fft 0;
#X obj 19 61 inlet~;
#X obj 95 214 inlet;
#X obj 29 92 rfft~;
#X obj 29 125 *~;
#X obj 60 125 *~;
#X obj 29 155 sqrt~;
#X obj 332 109 block~ 4096 1;
#X obj 29 181 biquad~ 0 0 0 0 1;
#X text 93 93 Fourier series;
#X text 98 146 magnitude;
#X text 96 131 calculate;
#X text 21 3 This subpatch computes the spectrum of the incoming signal
with a (rectangular windowed) FFT. FFTs aren't properly introduced
until much later.;
#X text 83 61 signal to analyze;
#X text 192 166 delay two samples;
#X text 191 182 for better graphing;
#X text 145 216 "bang" into this inlet to graph it;
#X obj 95 248 tabwrite~ \$0-frequencies;
#X obj 20 281 tabwrite~ \$0-frequencies;
#X connect 0 0 2 0;
#X connect 0 0 17 0;
#X connect 1 0 16 0;
#X connect 1 0 17 0;
#X connect 2 0 3 0;
#X connect 2 0 3 1;
#X connect 2 1 4 0;
#X connect 2 1 4 1;
#X connect 3 0 5 0;
#X connect 4 0 5 0;
#X connect 5 0 7 0;
#X connect 7 0 16 0;
#X restore 130 327 pd fft;
#N canvas 0 22 450 300 (subpatch) 0;
#X array \$0-frequencies 256 float 0;
#X coords 0 100 255 0 200 130 1;
#X restore 400 232 graph;
#X text 194 271 graph frequencies;
#X obj 169 297 metro 30;
#X obj 99 81 hsl 128 15 0 6000 0 0 empty empty 0_-_6000_Hz 20 8 1 12
-262144 -1 -1 0 1;
#X text 579 364 500 Hz;
#X text 397 363 0 Hz;
#X text 378 181 -1;
#X text 386 113 0;
#X text 386 46 1;
#X obj 72 103 hip~;
#X text 71 8 Highpass Filter;
#X obj 169 276 tgl 15 0 empty empty empty 17 7 0 10 -262144 -1 -1 0
1;
#X obj 148 176 tgl 15 0 empty empty empty 17 7 0 10 -262144 -1 -1 0
1;
#X obj 94 141 hsl 128 15 0 1 0 0 empty empty empty -2 -8 0 10 -262144
-1 -1 0 1;
#X connect 2 0 16 0;
#X connect 3 0 4 0;
#X connect 3 0 4 1;
#X connect 3 0 6 0;
#X connect 3 0 0 0;
#X connect 5 0 0 0;
#X connect 9 0 6 1;
#X connect 10 0 16 1;
#X connect 16 0 3 0;
#X connect 18 0 9 0;
#X connect 19 0 5 0;
#X connect 20 0 3 1;
