#N canvas 733 166 503 577 10;
#X obj 230 332 textfile;
#X msg 230 296 read data/formant\$1.txt \, rewind;
#X obj 203 265 t b f;
#X floatatom 43 177 5 0 500 2 Base_Freq base-freq -;
#X floatatom 110 177 5 0 100 2 Pulse_Width pulse-width -;
#X obj 111 437 hip~ 100;
#X floatatom 221 373 5 0.5 2 2 Formant_Base formant-base -;
#X obj 46 274 lp5_butt~ 5000 200;
#X msg 318 402 \; base-freq 57 \; pulse-width 21 \; vowel 1 \; formant-base
1 \;;
#X obj 318 369 loadbang;
#X obj 111 409 forfil3;
#N canvas 0 22 346 239 pulsegen 0;
#X obj 85 36 inlet;
#X obj 173 36 inlet;
#X obj 85 75 phasor~;
#X obj 86 114 expr~ $v1 > $v2;
#X obj 86 145 expr~ ($v1 - 0.5) *2;
#X obj 173 75 expr 1-($f1/100);
#X obj 86 181 outlet~;
#X connect 0 0 2 0;
#X connect 1 0 5 0;
#X connect 2 0 3 0;
#X connect 3 0 4 0;
#X connect 4 0 6 0;
#X connect 5 0 3 1;
#X restore 47 238 pd pulsegen;
#X text 39 23 A speech formant synthesizer by Jim Qode;
#X text 204 157 1- a;
#X text 204 172 2- e;
#X text 204 187 3- I;
#X text 204 202 4- i;
#X text 248 157 5- o;
#X text 248 172 6- :o;
#X text 248 187 7- u;
#X text 248 202 8- :u;
#X text 40 48 The vowels are Turkish vowels \, but they can be easily
customized using the text files in data directory. The text files have
the center frequency \, Q and amplitude data for 3 formant filters.
Much of the stuff is happening in forfil3 abstraction. Pulsegen can
be switched with a noise~ object for an annoying whispering voice.
;
#X obj 351 131 key;
#X obj 351 153 sel 32;
#X obj 351 204 + 1;
#X floatatom 202 233 5 1 8 0 - - -;
#X obj 351 178 f;
#X obj 379 178 + 1;
#X obj 409 180 mod 8;
#X obj 100 497 dac~;
#X obj 111 464 *~ 0.3;
#X connect 0 0 10 1;
#X connect 1 0 0 0;
#X connect 2 0 0 0;
#X connect 2 1 1 0;
#X connect 3 0 11 0;
#X connect 4 0 11 1;
#X connect 5 0 30 0;
#X connect 6 0 10 2;
#X connect 7 0 10 0;
#X connect 9 0 8 0;
#X connect 10 0 5 0;
#X connect 11 0 7 0;
#X connect 22 0 23 0;
#X connect 23 0 26 0;
#X connect 24 0 25 0;
#X connect 25 0 2 0;
#X connect 26 0 27 0;
#X connect 26 0 24 0;
#X connect 27 0 28 0;
#X connect 28 0 26 1;
#X connect 30 0 29 0;
#X connect 30 0 29 1;
